  <svg class="green-creative-background" width="100%" height="2288" viewBox="0 0 1440 2288" fill="none" xmlns="http://www.w3.org/2000/svg">
    <g opacity="0.1" clip-path="url(#clip0_15_4651)">
    <path d="M-523.369 709.684C-510.459 689.924 -263.962 451.205 30.4051 335.232C294.395 231.389 601.065 313.554 717.47 665.203C842.157 1042.02 1052.43 1258.83 1272.24 1380.72C1489.35 1500.82 1725.27 1484.24 1853.38 1453.47C2130.72 1387.41 2201.14 1647.21 1928.25 1817.38C1800.9 1896.17 1698.69 1857.93 1559.27 1751.91C1413.55 1641.1 1236.94 1436.62 913.86 1235.31C602.101 1041.35 193.829 883.596 -112.55 875.793C-438.735 867.619 -637.121 881.091 -523.369 709.684Z" fill="#A2C205"/>
    </g>
    <defs>
    <clipPath id="clip0_15_4651">
    <rect width="2699.56" height="958.638" fill="white" transform="translate(-54.8105) rotate(33.4342)"/>
    </clipPath>
    </defs>
    </svg>