<svg class="arrow-vector"  width="65" height="170" viewBox="0 0 65 170" fill="none" xmlns="http://www.w3.org/2000/svg">
        <g clip-path="url(#clip0_15_4653)">
        <path d="M44.0254 169.244L65 169.244L54.5127 158.8L44.0254 169.244Z" fill="#FF0000"/>
        <path d="M44.0254 133.853L65 133.853L54.5127 123.409L44.0254 133.853Z" fill="#FF0000"/>
        <path d="M44.0254 98.4465L65 98.4465L54.5127 88.0027L44.0254 98.4465Z" fill="#FF0000"/>
        <path d="M44.0254 63.0552L65 63.0552L54.5127 52.6114L44.0254 63.0552Z" fill="#FF0000"/>
        <path d="M44.0254 27.6638L65 27.6638L54.5127 17.2049L44.0254 27.6638Z" fill="#FF0000"/>
        <path d="M0.000263214 152.039L20.9749 152.039L10.4876 141.595L0.000263214 152.039Z" fill="#FF0000"/>
        <path d="M1.90735e-05 116.632L20.9746 116.632L10.4873 106.189L1.90735e-05 116.632Z" fill="#FF0000"/>
        <path d="M1.90735e-05 81.2412L20.9746 81.2412L10.4873 70.7974L1.90735e-05 81.2412Z" fill="#FF0000"/>
        <path d="M1.90735e-05 45.8499L20.9746 45.8499L10.4873 35.406L1.90735e-05 45.8499Z" fill="#FF0000"/>
        <path d="M1.90735e-05 10.4436L20.9746 10.4436L10.4873 -0.000212584L1.90735e-05 10.4436Z" fill="#FF0000"/>
        </g>
        <defs>
        <clipPath id="clip0_15_4653">
        <rect width="65" height="169.244" fill="white" transform="translate(65 169.244) rotate(180)"/>
        </clipPath>
        </defs>
        </svg>